<?xml version="1.0" encoding="utf-8"?>
<!-- Svg Vector Icons : http://www.onlinewebfonts.com/icon -->
<!DOCTYPE svg PUBLIC "-//W3C//DTD SVG 1.1//EN" "http://www.w3.org/Graphics/SVG/1.1/DTD/svg11.dtd">
<svg version="1.1" xmlns="http://www.w3.org/2000/svg" xmlns:xlink="http://www.w3.org/1999/xlink" x="0px" y="0px" viewBox="0 0 1000 1000" enable-background="new 0 0 1000 1000" xml:space="preserve">
<metadata> Svg Vector Icons : http://www.onlinewebfonts.com/icon </metadata>
<g><path d="M987.4,502.5L987.4,502.5L987.4,502.5c0,2.5,0,2.5,0,2.5l0,0l0,0c0,7.7-5.2,15.5-10.3,20.6c-10.3,12.8-20.6,25.8-33.4,36.1c-61.7,64.4-131.3,123.6-208.5,164.7c-48.9,25.8-100.3,48.9-154.4,59.2c-59.2,10.3-118.4,10.3-177.6-2.5c-46.4-10.3-92.7-28.3-133.9-51.4l2.5-2.5l123.6-85c30.9,23.1,66.9,36.1,108.1,36.1c100.3,0,182.8-85,182.8-190.5c0-12.8-2.5-28.3-5.2-41.2l162.2-110.7c10.3,7.7,20.6,18,30.9,25.8c38.6,30.9,74.7,66.9,105.5,108.1c5.2,5.2,10.3,12.8,10.3,20.6l0,0l0,0l0,0l0,0l0,0C987.4,497.4,987.4,500,987.4,502.5C987.4,500,987.4,500,987.4,502.5z M498.4,587.5c-5.2,0-12.8,0-18-2.5l108.1-74.7C578.2,554,542.1,587.5,498.4,587.5z M899.9,247.8L107.1,790.8l0,0l0,0c-5.2,2.5-10.3,5.2-12.8,5.2c-12.8,0-23.1-10.3-23.1-23.1c0-7.7,5.2-15.5,10.3-20.6l0,0l795.3-543.1l0,0l0,0c2.5-2.5,7.7-5.2,12.8-5.2c12.8,0,23.1,10.3,23.1,23.1C912.7,237.5,907.6,242.6,899.9,247.8L899.9,247.8z M498.4,397c7.7,0,18,2.5,25.8,2.5l-115.9,79.8C413.4,433.1,452,397,498.4,397z M609,340.4c-30.9-25.8-69.5-38.6-110.7-38.6c-100.3,0-182.8,85-182.8,190.5c0,18,2.5,33.4,5.2,48.9L161.2,651.8l-7.7,5.2c-10.3-7.7-18-15.5-28.3-23.1c-38.7-30.9-74.7-67-105.6-108.1c-12.8-18-12.8-38.6,0-54.1c10.3-12.8,20.6-25.8,33.5-36.1C112.3,371.3,184.3,312,259,270.9c48.9-25.8,100.3-48.9,154.4-59.2c59.2-10.3,118.4-10.3,177.6,2.5c43.8,10.3,87.5,25.8,126.1,48.9l-7.7,5.2L609,340.4z"/></g>
</svg>