<?xml version="1.0" encoding="utf-8"?>
<!-- Svg Vector Icons : http://www.onlinewebfonts.com/icon -->
<!DOCTYPE svg PUBLIC "-//W3C//DTD SVG 1.1//EN" "http://www.w3.org/Graphics/SVG/1.1/DTD/svg11.dtd">
<svg version="1.1" xmlns="http://www.w3.org/2000/svg" xmlns:xlink="http://www.w3.org/1999/xlink" x="0px" y="0px" viewBox="0 0 1000 1000" enable-background="new 0 0 1000 1000" xml:space="preserve">
<metadata> Svg Vector Icons : http://www.onlinewebfonts.com/icon </metadata>
<g><path d="M946.5,482c-7.1,9-14.7,17.7-22.4,26.2c-19.7,21.9-40.5,42.7-62.2,62.6c-14.4,13.2-29.1,25.9-44.3,38.2c-4,3.2-8,6.4-12,9.5c-3.4,2.6,4.6-3.5,1.2-0.9c-1,0.8-2,1.5-3,2.3c-2.2,1.7-4.4,3.3-6.6,4.9c-8.8,6.6-17.7,13-26.8,19.2c-18.7,12.8-38,24.8-57.8,35.7c-10.3,5.7-20.8,11.1-31.4,16.1c-5.3,2.5-10.5,4.9-15.9,7.3c-1.3,0.6-2.6,1.1-3.9,1.7c-0.9,0.4-5.5,2.4-1.5,0.6c4.1-1.7-0.6,0.2-1.5,0.6c-1.7,0.7-3.5,1.4-5.2,2.1c-22.2,8.9-45,16.2-68.2,21.7c-11.9,2.8-23.9,5.1-36,6.9c-1,0.2-6.2,0.9-1.6,0.2s-0.6,0.1-1.6,0.2c-3.1,0.4-6.2,0.7-9.4,1c-6,0.6-12.1,1-18.2,1.3c-12.5,0.6-25,0.6-37.4,0c-6.1-0.3-12.1-0.8-18.2-1.4c-2.9-0.3-5.8-0.6-8.6-0.9c-1-0.1-6.2-0.8-1.6-0.2c4.7,0.6-2.1-0.3-3-0.5c-23.8-3.6-47.3-9.2-70.2-16.6c-11.2-3.6-22.3-7.6-33.2-12c-1.5-0.6-3-1.2-4.6-1.9c-0.9-0.4-5.6-2.3-1.5-0.6c4.1,1.7-0.5-0.2-1.5-0.6c-1.5-0.6-3-1.3-4.5-2c-5.3-2.4-10.6-4.8-15.9-7.3c-20.8-10-41.1-21.2-60.7-33.4c-18.9-11.7-37.3-24.4-55.2-37.7c-2-1.5-4-3-6-4.6c-1-0.8-2-1.5-3-2.3c-3.1-2.4,4.9,3.8,0.7,0.6c-4-3.1-8-6.3-12-9.5c-7.8-6.3-15.5-12.7-23.1-19.3c-24.9-21.5-48.7-44.4-71.2-68.4c-11.3-12-22.3-24.3-32.7-37.2c-0.5-0.6-0.9-1.2-1.4-1.8c0,12,0,24,0,36c7.1-9,14.7-17.7,22.4-26.2c19.7-21.9,40.5-42.7,62.2-62.6c14.4-13.2,29.1-25.9,44.3-38.2c4-3.2,8-6.4,12-9.5c3.4-2.6-4.6,3.5-1.2,0.9c1-0.8,2-1.5,3-2.3c2.2-1.7,4.4-3.3,6.6-4.9c8.8-6.6,17.7-13,26.8-19.2c18.7-12.8,38-24.8,57.8-35.7c10.3-5.7,20.8-11.1,31.4-16.1c5.3-2.5,10.5-4.9,15.9-7.3c1.3-0.6,2.6-1.1,3.9-1.7c0.9-0.4,5.5-2.4,1.5-0.6c-4.1,1.7,0.6-0.2,1.5-0.6c1.7-0.7,3.5-1.4,5.2-2.1c22.2-8.9,45-16.2,68.2-21.7c11.9-2.8,23.9-5.1,36-6.9c1-0.2,6.2-0.9,1.6-0.2c-4.5,0.6,0.6-0.1,1.6-0.2c3.1-0.4,6.2-0.7,9.4-1c6-0.6,12.1-1,18.2-1.3c12.5-0.6,25-0.6,37.4,0c6.1,0.3,12.1,0.8,18.2,1.4c2.9,0.3,5.8,0.6,8.6,0.9c1,0.1,6.2,0.8,1.6,0.2c-4.7-0.6,2.1,0.3,3,0.5c23.8,3.6,47.3,9.2,70.2,16.6c11.2,3.6,22.3,7.6,33.2,12c1.5,0.6,3,1.2,4.6,1.9c0.9,0.4,5.6,2.3,1.5,0.6c-4.1-1.7,0.5,0.2,1.5,0.6c1.5,0.6,3,1.3,4.5,2c5.3,2.4,10.6,4.8,15.9,7.3c20.8,10,41.1,21.2,60.7,33.4c18.9,11.7,37.3,24.4,55.2,37.7c2,1.5,4,3,6,4.6c1,0.8,2,1.5,3,2.3c3.1,2.4-4.9-3.8-0.7-0.6c4,3.1,8,6.3,12,9.5c7.8,6.3,15.5,12.7,23.1,19.3c24.9,21.5,48.7,44.4,71.2,68.4c11.3,12,22.3,24.3,32.7,37.2c0.5,0.6,0.9,1.2,1.4,1.8c3.7,4.8,12.3,7.5,18,7.5c6.2,0,13.7-2.8,18-7.5c4.5-4.9,7.8-11.2,7.5-18c-0.3-7.2-3.1-12.4-7.5-18c-7.2-9.2-15-18-22.8-26.7c-20.2-22.4-41.5-43.7-63.7-64c-31.9-29.1-65.7-56.1-101.4-80.4c-40.2-27.4-83.1-50.5-128.3-68.5c-47.1-18.8-97.2-30.4-147.9-32.9c-51-2.5-102.7,5.5-151.3,21c-46.9,15-91.7,36.5-133.6,62.3c-38.3,23.6-74.4,50.7-108.5,80c-25.4,21.8-49.7,45-72.6,69.4c-11.6,12.3-22.9,24.9-33.5,38c-0.5,0.6-0.9,1.2-1.4,1.8c-4.2,5.3-7.8,10.9-7.5,18c0.3,7.2,3.1,12.4,7.5,18c7.2,9.2,15,18,22.8,26.7c20.2,22.4,41.5,43.7,63.7,64c31.9,29.1,65.7,56.1,101.4,80.4c40.2,27.4,83.1,50.5,128.3,68.5c47.1,18.8,97.2,30.4,147.9,32.9c51,2.5,102.7-5.5,151.3-21c46.9-15,91.7-36.5,133.6-62.3c38.3-23.6,74.4-50.7,108.5-80c25.4-21.8,49.7-45,72.6-69.4c11.6-12.3,22.9-24.9,33.5-38c0.5-0.6,0.9-1.2,1.4-1.8c4.3-5.5,7.5-10.7,7.5-18c0-6.2-2.8-13.7-7.5-18C973.4,473.6,955.3,470.8,946.5,482z"/><path d="M607.2,500c0,3.2-0.1,6.4-0.3,9.6c-0.1,1.7-0.3,3.4-0.5,5.1c-0.1,0.9-0.5,3.6,0.1-0.5c0.6-4.7-0.1,0.2-0.2,0.9c-1.1,6.4-2.6,12.6-4.6,18.8c-0.9,2.9-2,5.8-3.1,8.6c-1.6,4.1,2.4-5.2,0.1-0.3c-0.8,1.7-1.6,3.4-2.4,5c-2.9,5.6-6.1,11-9.7,16.1c-0.7,1-4,5.3-1.3,1.9c2.7-3.4-0.4,0.4-1,1.2c-2.2,2.7-4.5,5.3-6.9,7.7c-2.1,2.2-4.3,4.2-6.5,6.3c-1.2,1.1-2.4,2.1-3.7,3.2c-0.8,0.7-5.2,4.2-1.8,1.5c3.4-2.7-0.9,0.6-1.9,1.3c-1.1,0.8-2.3,1.6-3.4,2.3c-2.9,1.9-5.9,3.7-9,5.4c-2.7,1.5-5.4,2.8-8.1,4.1c-0.6,0.3-1.3,0.6-1.9,0.9c-2.4,1.2,3.1-1.3,2.9-1.2c-1.8,0.6-3.5,1.4-5.3,2c-6.3,2.3-12.7,4.1-19.2,5.4c-1.4,0.3-2.8,0.5-4.3,0.8c-0.9,0.2-1.9,0.3-2.9,0.4c-0.3,0.1,6-0.7,3.2-0.4c-3.4,0.3-6.8,0.7-10.3,0.8c-6.9,0.3-13.8-0.2-20.7-0.8c-2.8-0.2,3.5,0.5,3.2,0.4c-0.7-0.1-1.4-0.2-2.2-0.3c-1.7-0.3-3.3-0.6-5-0.9c-3.3-0.7-6.5-1.4-9.8-2.3c-3.2-0.9-6.3-1.9-9.5-3c-1.3-0.5-2.6-1-4-1.5c-0.8-0.3-3.2-1.3,0.4,0.2c4.1,1.7,0.1,0-0.8-0.4c-5.7-2.6-11.2-5.7-16.5-9.1c-2.5-1.6-4.8-3.7-7.4-5.2c6.2,3.6,2,1.5,0.3,0.1c-1.4-1.2-2.8-2.4-4.2-3.6c-4.6-4.2-9-8.7-13-13.5c-0.7-0.9-4.1-5.2-1.5-1.8c2.8,3.6-0.8-1.2-1.3-1.9c-1.9-2.7-3.6-5.4-5.3-8.2c-1.6-2.6-3-5.2-4.4-7.9c-0.7-1.5-1.5-2.9-2.2-4.4c-0.3-0.6-0.5-1.3-0.9-1.9c-1.5-2.8,2,5.1,0.9,2.2c-2.3-6.3-4.5-12.4-6.1-18.9c-0.7-3-1.4-6.1-1.9-9.2c-0.1-0.7-0.2-1.4-0.3-2.1c-0.5-3.3,0.7,5.8,0.3,2.4c-0.2-1.7-0.4-3.4-0.5-5.1c-0.5-6.9-0.5-13.8,0-20.7c0.1-1.5,0.3-2.9,0.4-4.4c0.4-4.4-1,6,0,0.3c0.5-3.3,1.2-6.6,2-9.9c1.6-6.5,3.9-12.6,6.1-18.9c0.9-2.6-1.3,3.1-1.2,2.8c0.5-0.7,0.8-1.8,1.2-2.6c0.6-1.3,1.2-2.5,1.8-3.8c1.5-2.9,3-5.8,4.7-8.6c1.7-2.8,3.4-5.5,5.3-8.2c0.8-1.1,1.8-2.2,2.5-3.4c-0.1,0.3-4,5-1.4,1.9c0.6-0.7,1.2-1.4,1.8-2.1c4-4.8,8.3-9.3,13-13.5c1.2-1.1,2.4-2.1,3.7-3.2c0.8-0.7,5.4-4.3,1.8-1.5c-3.4,2.7,0.5-0.3,1.3-0.9c1.5-1.1,3-2.1,4.6-3.1c5.3-3.4,10.8-6.5,16.5-9.1c0.8-0.4,1.8-0.7,2.6-1.2c0.2-0.1-5.4,2.1-2.8,1.2c1.5-0.6,3.1-1.2,4.6-1.8c3.1-1.1,6.3-2.2,9.5-3c3-0.8,6-1.6,9-2.2c1.7-0.3,3.3-0.7,5-0.9c0.7-0.1,1.4-0.2,2.1-0.3c3.1-0.5-6.9,0.7-1.7,0.3c6.7-0.6,13.3-1,20-0.7c3.2,0.1,6.4,0.4,9.5,0.7c4.5,0.4-5.9-0.9-0.3,0c1.7,0.3,3.3,0.6,5,0.9c6.5,1.3,13,3.1,19.2,5.4c1.5,0.6,3.1,1.2,4.6,1.8c2.6,0.9-3.1-1.3-2.8-1.2c0.6,0.4,1.3,0.6,1.9,0.9c3.2,1.5,6.3,3,9.4,4.7c2.6,1.5,5.2,3,7.8,4.7c1.2,0.8,2.3,1.5,3.5,2.3c0.8,0.6,6,4.5,2.5,1.7c-3.6-2.8,1.1,0.9,1.8,1.5c1.1,0.9,2.1,1.8,3.1,2.7c2.4,2.2,4.8,4.4,7,6.7c2.3,2.3,4.4,4.7,6.5,7.2c0.9,1.1,1.7,2.2,2.6,3.2c-0.2-0.2-3.8-5.2-1.5-1.8c0.5,0.8,1.1,1.5,1.6,2.3c3.7,5.3,7.1,10.9,10,16.7c0.6,1.3,1.2,2.5,1.8,3.8c0.4,0.8,0.7,1.8,1.2,2.6c0.1,0.2-2.1-5.4-1.2-2.8c1.1,3.1,2.4,6.2,3.4,9.3c2.1,6.4,3.6,12.9,4.7,19.5c0.1,0.7,0.2,1.4,0.3,2.2c0.1,0.3-0.7-6-0.4-3.2c0.1,1.7,0.4,3.4,0.5,5.1C607.1,493.1,607.2,496.5,607.2,500c0.1,13.3,11.7,26.1,25.5,25.5c13.7-0.6,25.6-11.2,25.5-25.5c-0.2-31.9-9.7-64.3-28.4-90.3c-19.5-27.1-45.5-47.1-76.9-58.7c-60.2-22.3-132.8-2.7-173.6,47c-21.5,26.3-34.2,57.1-37,91c-2.6,32,5.6,65.4,22.2,92.7c15.9,26.3,40,48.7,68.1,61.4c31.8,14.4,66.1,18.6,100.4,11.7c61.5-12.3,113.1-65.2,122.7-127.4c1.4-9.1,2.4-18.1,2.5-27.3c0.1-13.3-11.8-26.1-25.5-25.5C618.8,475.1,607.3,485.7,607.2,500z"/></g>
</svg>